<?xml version="1.0" encoding="UTF-8" standalone="no"?>
<svg
   xmlns:dc="http://purl.org/dc/elements/1.1/"
   xmlns:cc="http://creativecommons.org/ns#"
   xmlns:rdf="http://www.w3.org/1999/02/22-rdf-syntax-ns#"
   xmlns:svg="http://www.w3.org/2000/svg"
   xmlns="http://www.w3.org/2000/svg"
   xmlns:sodipodi="http://sodipodi.sourceforge.net/DTD/sodipodi-0.dtd"
   xmlns:inkscape="http://www.inkscape.org/namespaces/inkscape"
   height="109.0595"
   id="Layer_1"
   version="1.1"
   viewBox="0 0 109.0595 109.0595"
   width="109.0595"
   xml:space="preserve"
   sodipodi:docname="settings2.svg"
   inkscape:version="0.92.0 r15299"
   inkscape:export-filename="D:\Bureau\test.png"
   inkscape:export-xdpi="28.16811"
   inkscape:export-ydpi="28.16811"><metadata
     id="metadata9"><rdf:RDF><cc:Work
         rdf:about=""><dc:format>image/svg+xml</dc:format><dc:type
           rdf:resource="http://purl.org/dc/dcmitype/StillImage" /><dc:title></dc:title></cc:Work></rdf:RDF></metadata><defs
     id="defs7" /><sodipodi:namedview
     pagecolor="#ffffff"
     bordercolor="#666666"
     borderopacity="1"
     objecttolerance="10"
     gridtolerance="10"
     guidetolerance="10"
     inkscape:pageopacity="0"
     inkscape:pageshadow="2"
     inkscape:window-width="1849"
     inkscape:window-height="1174"
     id="namedview5"
     showgrid="false"
     inkscape:zoom="2.8284271"
     inkscape:cx="110.42773"
     inkscape:cy="33.18447"
     inkscape:window-x="62"
     inkscape:window-y="-9"
     inkscape:window-maximized="1"
     inkscape:current-layer="Layer_1"
     showguides="false"
     fit-margin-top="0"
     fit-margin-left="0"
     fit-margin-right="0"
     fit-margin-bottom="0" /><path
     style="fill:#311b92;fill-opacity:1;stroke-width:1.14028919"
     d="m 42.061978,3.176454 c -0.09192,0.0339 -0.179635,0.07824 -0.269532,0.113281 -0.04238,0.01639 -0.08464,0.03253 -0.126953,0.04883 -0.211209,0.0808 -0.419905,0.168959 -0.630859,0.253907 -0.230795,0.0919 -0.459089,0.183594 -0.685547,0.279297 -0.186062,0.0782 -0.368649,0.160857 -0.552734,0.240234 -0.08639,0.0357 -0.173719,0.0741 -0.259766,0.111328 -0.150065,0.0661 -0.303484,0.127624 -0.453125,0.195313 -0.08294,0.0363 -0.164628,0.072 -0.248047,0.109375 -0.205927,0.0944 -0.408189,0.193506 -0.613281,0.291015 -0.05095,0.0248 -0.104551,0.04872 -0.15625,0.07422 -0.08893,0.04211 -0.177764,0.0842 -0.265625,0.126953 -0.297237,0.143089 -0.592741,0.288557 -0.886719,0.4375 -0.03195,0.0173 -0.06417,0.0349 -0.09766,0.05078 -0.478565,0.245134 -0.955485,0.495419 -1.425781,0.75586 -0.119715,0.06681 -0.235904,0.135256 -0.355469,0.203125 -1.001477,0.564693 -1.985466,1.159951 -2.947266,1.794922 -0.01933,0.0123 -0.03597,0.02479 -0.05469,0.03906 -1.245353,0.822812 -2.455154,1.707063 -3.63086,2.646484 -0.03251,0.0257 -0.06449,0.0524 -0.09766,0.07812 -0.149787,0.120196 -0.304381,0.236557 -0.453125,0.357422 -4.821528,-1.432658 -11.99288,-4.191422 -14.75,0.265625 L 3.2611956,28.692078 c -2.1219911,6.313633 3.1219049,8.999112 7.1445324,12.908203 -0.01418,0.08397 -0.02286,0.166118 -0.03711,0.25 -0.01562,0.09765 -0.02937,0.198063 -0.04297,0.296875 -0.0893,0.576528 -0.169953,1.151752 -0.238281,1.728516 -0.01332,0.102886 -0.02335,0.208069 -0.03516,0.310547 -0.059,0.524185 -0.1124745,1.049118 -0.1562505,1.574219 -0.004,0.05537 -0.0076,0.110652 -0.01172,0.166015 -0.006,0.06918 -0.01186,0.137925 -0.01758,0.207031 -0.01416,0.193329 -0.02551,0.386648 -0.03711,0.580078 -0.0273,0.446399 -0.0485,0.891715 -0.0625,1.337891 -0.01119,0.322709 -0.02454,0.646708 -0.03125,0.970703 -0.003,0.205213 0.001,0.410443 0,0.615235 -5.73e-4,0.01501 6e-6,0.03302 0,0.04883 2.93e-4,0.03831 -0.0049,0.07599 -0.0039,0.113281 -4.01e-4,0.0669 0.0049,0.131876 0.0039,0.197266 0.002,0.744954 0.02063,1.489401 0.05664,2.234375 0.004,0.08503 0.0088,0.169367 0.01367,0.253906 0.005,0.08556 0.0077,0.173212 0.01172,0.259765 0.003,0.02519 0.0019,0.04858 0.0039,0.07227 0.0391,0.641449 0.09309,1.282978 0.15625,1.923828 0.009,0.08941 0.01744,0.179509 0.02734,0.269532 0.0749,0.718692 0.165354,1.437305 0.271484,2.154296 0.01809,0.123701 0.03704,0.249762 0.05664,0.373047 0.0257,0.158369 0.04497,0.316648 0.07227,0.47461 -3.6484205,3.457692 -9.60382347,8.285249 -7.1250014,12.896484 L 13.116648,87.95576 c 4.402263,4.990828 9.341184,1.80212 14.732422,0.27734 0.111533,0.092 0.227865,0.17843 0.339844,0.26953 0.128674,0.10327 0.256904,0.20537 0.386718,0.30665 0.536992,0.42457 1.079228,0.83797 1.628907,1.23828 0.108769,0.0786 0.21649,0.15719 0.326172,0.23633 0.494722,0.354108 0.995816,0.700808 1.501953,1.035148 0.03954,0.0251 0.07966,0.0511 0.11914,0.0762 0.04295,0.0283 0.086,0.0557 0.128907,0.084 0.111543,0.0736 0.224757,0.14559 0.33789,0.21875 0.581507,0.37256 1.172265,0.73374 1.767578,1.08008 0.08342,0.0493 0.160209,0.10193 0.244141,0.15039 0.09083,0.0525 0.186493,0.0999 0.277344,0.15234 0.06618,0.0382 0.132532,0.0779 0.199218,0.11523 0.07208,0.0416 0.142722,0.0846 0.216797,0.125 0.246413,0.13649 0.497033,0.26849 0.746094,0.4004 0.322697,0.17315 0.647929,0.33883 0.972656,0.5039 0.274183,0.13857 0.546215,0.27905 0.822266,0.41211 0.03907,0.0191 0.07865,0.0387 0.117187,0.0586 0.137049,0.066 0.276489,0.1295 0.41211,0.19336 0.176809,0.0837 0.356222,0.16103 0.533203,0.24219 0.401293,0.18296 0.80009,0.36433 1.203125,0.53516 0.005,0.003 0.01338,0.003 0.01758,0.008 0.601799,0.2553 1.207412,0.49741 1.816406,0.72656 0.0346,0.013 0.06652,0.0313 0.103516,0.0449 1.173176,4.885122 2.375986,12.456642 7.605469,12.613292 h 19.683593 c 6.521484,-1.31584 6.231061,-7.1838 7.609376,-12.613292 0.113941,-0.0422 0.218144,-0.0953 0.330078,-0.13867 0.02067,-0.006 0.0402,-0.0171 0.05859,-0.0254 0.002,10e-4 0.0031,-1e-5 0.0039,0 0.17593,-0.0673 0.349557,-0.14129 0.52539,-0.21094 0.275307,-0.10964 0.551179,-0.21906 0.824219,-0.33398 0.159258,-0.0661 0.313792,-0.13554 0.472656,-0.20312 0.207176,-0.0897 0.415685,-0.1773 0.623047,-0.26954 0.02332,-0.01 0.0449,-0.0204 0.06836,-0.0293 0.0977,-0.0436 0.193789,-0.0836 0.291015,-0.12891 0.235842,-0.10741 0.470094,-0.22231 0.703125,-0.33398 0.0219,-0.008 0.04144,-0.0194 0.06055,-0.0293 0.09347,-0.0436 0.18478,-0.0876 0.275391,-0.13281 0.813891,-0.39253 1.61896,-0.80345 2.412109,-1.24219 0.137824,-0.0773 0.275305,-0.15537 0.410156,-0.23438 0.984051,-0.55498 1.950139,-1.14261 2.898438,-1.76562 0.03308,-0.0203 0.06269,-0.0423 0.0957,-0.0625 1.429064,-0.947218 2.82128,-1.965478 4.156245,-3.064448 C 97.984169,82.569859 103.571,74.713076 106.36521,66.659045 101.3441,68.899379 95.883029,70.080959 90.325649,70.092469 68.475425,70.092813 50.761931,52.380193 50.761196,30.529969 50.775646,18.688684 56.068795,7.706838 64.82861,0.32323524 60.001446,-0.39444176 50.44551,-0.10993976 42.061978,3.176454 Z"
     id="path2"
     inkscape:connector-curvature="0"
     sodipodi:nodetypes="cccccccccccccccccccccccccccccccccccccccccccccccccccccccccccccccccccccccccccccccccccccccccccccccccc" /></svg>